<?xml version="1.0" encoding="UTF-8" standalone="no"?>
<!DOCTYPE svg PUBLIC "-//W3C//DTD SVG 1.1//EN" "http://www.w3.org/Graphics/SVG/1.1/DTD/svg11.dtd">
<svg width="100%" height="100%" viewBox="0 0 520 520" version="1.1" xmlns="http://www.w3.org/2000/svg" xmlns:xlink="http://www.w3.org/1999/xlink" xml:space="preserve" xmlns:serif="http://www.serif.com/" style="fill-rule:evenodd;clip-rule:evenodd;stroke-linejoin:round;stroke-miterlimit:2;">
    <g id="Logo" transform="matrix(0.996169,0,0,0.996169,85.670498,96.628352)">
        <rect x="-86" y="-97" width="522" height="522" style="fill:none;"/>
        <clipPath id="_clip1">
            <rect x="-86" y="-97" width="522" height="522"/>
        </clipPath>
        <g clip-path="url(#_clip1)">
            <g transform="matrix(1.216783,0,0,1.216783,-116.41958,-150.538462)">
                <path d="M375.01,44C418.635,44 454,79.365 454,122.99L454,394.01C454,437.635 418.635,473 375.01,473L103.99,473C60.365,473 25,437.635 25,394.01L25,122.99C25,79.365 60.365,44 103.99,44L375.01,44Z" style="fill:rgb(79,70,229);"/>
            </g>
            <g transform="matrix(1.253714,0,0,1.253714,-153.595162,-115.100799)">
                <g transform="matrix(146.584867,0,0,146.584867,319,169)">
                    <path d="M0.065,-0L0.065,-0.134L0.342,-0.409C0.355,-0.422 0.366,-0.438 0.373,-0.456C0.38,-0.473 0.384,-0.491 0.384,-0.51C0.384,-0.537 0.376,-0.56 0.359,-0.578C0.343,-0.596 0.322,-0.605 0.295,-0.605C0.268,-0.605 0.246,-0.596 0.229,-0.577C0.212,-0.558 0.203,-0.534 0.203,-0.505L0.053,-0.505C0.053,-0.552 0.064,-0.593 0.085,-0.628C0.105,-0.663 0.135,-0.69 0.172,-0.71C0.209,-0.73 0.251,-0.74 0.3,-0.74C0.347,-0.74 0.389,-0.731 0.424,-0.713C0.459,-0.694 0.487,-0.668 0.507,-0.636C0.527,-0.603 0.537,-0.564 0.537,-0.521C0.537,-0.482 0.529,-0.445 0.512,-0.409C0.495,-0.372 0.468,-0.336 0.431,-0.301L0.257,-0.135L0.545,-0.135L0.545,-0L0.065,-0Z" style="fill:rgb(199,210,254);fill-rule:nonzero;"/>
                </g>
                <g transform="matrix(146.584867,0,0,146.584867,406.95092,169)">
                </g>
            </g>
            <g transform="matrix(1.224074,0,0,1.224074,-115.355589,-118.473726)">
                <g transform="matrix(343.427403,0,0,343.427403,83,371)">
                    <path d="M0.066,-0L0.066,-0.73L0.301,-0.73C0.35,-0.73 0.392,-0.722 0.428,-0.707C0.465,-0.691 0.493,-0.669 0.513,-0.641C0.534,-0.613 0.544,-0.58 0.544,-0.542C0.544,-0.515 0.539,-0.49 0.528,-0.468C0.518,-0.446 0.504,-0.428 0.485,-0.415C0.467,-0.401 0.446,-0.392 0.422,-0.389L0.422,-0.387C0.449,-0.384 0.474,-0.375 0.494,-0.358C0.515,-0.342 0.532,-0.321 0.543,-0.296C0.555,-0.271 0.561,-0.242 0.561,-0.211C0.561,-0.169 0.55,-0.132 0.529,-0.101C0.509,-0.069 0.479,-0.044 0.442,-0.026C0.404,-0.009 0.36,-0 0.31,-0L0.066,-0ZM0.211,-0.121L0.305,-0.121C0.338,-0.121 0.363,-0.13 0.382,-0.147C0.401,-0.164 0.41,-0.188 0.41,-0.219C0.41,-0.25 0.401,-0.274 0.382,-0.291C0.363,-0.309 0.338,-0.318 0.305,-0.318L0.211,-0.318L0.211,-0.121ZM0.211,-0.436L0.299,-0.436C0.328,-0.436 0.351,-0.444 0.368,-0.46C0.385,-0.475 0.393,-0.496 0.393,-0.523C0.393,-0.55 0.385,-0.572 0.368,-0.587C0.351,-0.602 0.328,-0.609 0.299,-0.609L0.211,-0.609L0.211,-0.436Z" style="fill:white;fill-rule:nonzero;"/>
                </g>
                <g transform="matrix(343.427403,0,0,343.427403,289.056442,371)">
                </g>
            </g>
        </g>
    </g>
</svg>
